<svg width="5579" height="3612" viewBox="0 0 5579 3612" fill="none" xmlns="http://www.w3.org/2000/svg">
<path d="M1856.94 506.024C1851.9 526.28 1847.59 546.825 1844.05 567.629L939.055 1055.93L1253.99 1253.84L1274.01 1243.05L995.477 1068.34L994.95 1068.01L982.115 1060.23L995.969 1052.76L1839.39 598.366C1836.86 617.392 1834.97 636.618 1833.73 656.022L1079 1062.64L1323.62 1216.31L1487.64 1127.91C1485.58 1113.52 1484.83 1098.93 1485.44 1084.31C1486.98 1047.15 1497.22 1010.87 1515.33 978.38L1516.02 977.145C1530.41 951.694 1549.34 929.167 1571.81 910.65L1582.8 893.015L1587.57 885.378L1595.2 890.14L1750.64 987.066L1860.18 927.808C1866.65 952.182 1874.18 976.124 1882.73 999.581L1776.68 1056.64L1770.72 1059.85L1765.99 1055.01L1763.18 1052.14L1585.32 941.236C1568.55 956.337 1554.33 974.137 1543.28 993.961L1543.28 993.96C1527.85 1021.64 1519.03 1052.5 1517.48 1084.13L1517.41 1085.64C1516.73 1101.98 1518.01 1118.29 1521.17 1134.23L1542.21 1173.26L1546.48 1181.19L1538.55 1185.45L1538.48 1185.49L1539.31 1187.34L1531.12 1191.06L1524.74 1193.95L1518.37 1196.84L1512.1 1199.68L1428 1244.92L2105.71 1666.97L2109.81 1669.52L2121.82 1674.03L2104.5 1683.44L1958.58 1762.7L2313.99 1985.33L2387.68 1945.89L2392.27 1943.44L2396.68 1946.19L2452.4 1980.85L2465.63 1989.08L2451.89 1996.43L2182.57 2140.49L2181.56 2141.03L2179.13 2144.92L2176.9 2143.53L2174.66 2144.72L2172.55 2140.82L2171.49 2140.16L1958.99 2007.64C1942.22 2022.75 1927.99 2040.55 1916.94 2060.37C1901.27 2088.48 1892.41 2119.88 1891.08 2152.05C1889.95 2179.31 1894.25 2206.48 1903.69 2231.98L1935.61 2251.93L1948.67 2260.08L1935.16 2267.46L1265.35 2633.42L1669.17 2886.71L2087.19 2661.57L2091.78 2659.1L2096.21 2661.86L2150.84 2695.89L2163.99 2704.09L2162.75 2704.76L2280.2 2778.91C2296.93 2763.83 2311.13 2746.06 2322.16 2726.26C2337.84 2698.15 2346.7 2666.75 2348.03 2634.59C2349.05 2609.96 2345.63 2585.4 2338.01 2562.09L2324.94 2546.56L2317.82 2538.1L2326.4 2533.46L2326.14 2532.89L2334.31 2529.17L2334.5 2529.09L3387.99 1960.23L3395.92 1955.94L3399.38 1962.36L3587.43 2079.97L3600.33 2088.05L3588.5 2094.65C3606.2 2116.01 3628.06 2133.61 3652.8 2146.34C3681.42 2161.08 3713.09 2168.89 3745.28 2169.16H3745.28C3767.97 2169.35 3790.47 2165.78 3811.88 2158.66L3804.55 1978.76L3804.18 1969.77L3813.17 1969.4L3814.88 1969.33L4121 1804.26L4125.43 1797.66L4129.04 1799.92L4130.07 1799.37L4131.32 1801.35L4132.82 1802.29L4218.02 1855.67L4294.36 1811.89L4300.36 1808.44L4300.45 1808.53L4300.86 1808.3L4305.44 1811.16L4487.16 1924.62C4503.92 1909.52 4518.15 1891.72 4529.2 1871.9C4544.87 1843.78 4553.73 1812.38 4555.06 1780.22C4556.37 1748.75 4548.84 1720 4535.21 1689.96L4531.5 1681.76L4539.69 1678.04L4543.09 1676.5L4600.91 1645.91L4355.96 1490.27L4342.75 1481.88L4356.65 1474.68L4382.67 1461.2L4445.05 1427.58L4371.3 1381.63L4358.27 1373.51L4371.72 1366.11L4415.82 1341.82C4426.93 1316.88 4432.99 1289.94 4433.59 1262.54C4434.29 1230.36 4427.43 1198.47 4413.56 1169.42C4403.79 1148.93 4390.71 1130.27 4374.93 1114.14L4176.53 1221.08L4168.46 1228.46L4170.44 1232.13L4162.52 1236.4L4155.82 1240.01L4151.09 1244.35L4149.56 1243.39L3662.1 1506.14L3907.72 1658.94L3920.48 1666.88L3919.33 1667.54L3922.7 1669.61L3909.04 1677.05L3728.07 1775.67L3720.13 1780L3715.84 1772.04L3688.89 1722.03L3684.62 1714.11L3692.54 1709.84L3774.85 1665.47L3700.04 1618.8L3529.51 1710.72L3521.59 1714.99L3517.32 1707.07L3516.09 1704.79L3273.34 1552.74L3198.15 1593.29L3193.65 1595.72L3189.25 1593.08L3135.21 1560.69L3152.21 1534.14L3764.9 1202.95L3664.83 1140.27L3267.04 1354.69L3320.97 1270.43L3617.47 1110.6L3464.73 1014.93C3470.69 999.486 3476.22 983.827 3481.29 967.964L3814.03 1176.39L3936.93 1109.95L3510.95 842.65C3515.25 815.264 3518.23 787.442 3519.83 759.249L4172.52 1168.05L4368.29 1062.53L4376.22 1058.26L4380.49 1066.18L4390.34 1084.46C4411.95 1104.68 4429.64 1128.81 4442.44 1155.63C4458.46 1189.2 4466.39 1226.05 4465.58 1263.24C4465 1290.09 4459.87 1316.58 4450.49 1341.59L4853.93 1594.51L4872.15 1584.53L4876.78 1582L4881.25 1584.8L5265.41 1825.41L5278.42 1833.56L5264.95 1840.93L5255.38 1846.17L5565.67 2040.69L5578.86 2048.96L5571.07 2053.1L5564.69 2056.53L4976.95 2373.07L5333.58 2596.49L5340.78 2601L5346.84 2604.71L5346.77 2604.75L5346.88 2604.82L5339.17 2608.85L5333.08 2612.14L4123.79 3264.63L4124.11 3264.83L4110.45 3272.17L4078.76 3289.19L4074.15 3291.67L4069.72 3288.89L3703.47 3059.23L3440.84 3200.76L3446.89 3204.71L3459.41 3212.88L3446.34 3220.12L3064.1 3432L3059.36 3434.63L3054.82 3431.67L3035.62 3419.15L2683.18 3609.1L2678.39 3611.67L2673.88 3608.64L2621.44 3573.35L2609.09 3565.04L2609.48 3564.82L2370.81 3415.25L2353.21 3424.9L2348.58 3427.43L2344.11 3424.63L1959.95 3184.02L1946.94 3175.88L1960.4 3168.5L1969.3 3163.63L828.314 2448.59L813.742 2456.57L809.113 2459.11L804.642 2456.31L420.484 2215.7L407.475 2207.55L420.939 2200.18L426.799 2196.97L71.7764 1974.48L71.6328 1974.56L67.1797 1971.77L13.1182 1937.94L0 1929.73L13.6221 1922.39L52.9473 1901.19L72.4111 1890.61L77.0322 1888.1L77.1309 1888.16L335.467 1748.92L322.013 1740.14L309.493 1731.98L322.565 1724.73L704.806 1512.85L709.546 1510.22L714.085 1513.18L740.666 1530.52L1204.73 1280.39L855.628 1061.68L850.212 1058.29L842.318 1053.49L856.127 1046.04L1856.94 506.024ZM2377.53 2590.5C2379.8 2605.47 2380.63 2620.68 2380 2635.91C2378.46 2673.08 2368.22 2709.36 2350.11 2741.85C2335.64 2767.81 2316.46 2790.77 2293.62 2809.59L2282.63 2827.21L2277.84 2834.89L2270.19 2830.06L2113.72 2731.26L1741.94 2932.34L1913.01 3039.64L1999.89 2993.12L1999.38 2992.8L2012.98 2985.45L2044.57 2968.38L2049.18 2965.89L2053.62 2968.67L2075.39 2982.3L2084.08 2987.53L2097.73 2995.74L2097.26 2995.99L2663.93 3350.89L2664.47 3350.6L2668.96 3353.59L2680.6 3361.34L2697.16 3371.7L2710.18 3379.86L2709.22 3380.39L2709.79 3380.77L2696.66 3387.89L2574.19 3454.35L2685.25 3524L2965.22 3373.24L2957.34 3368.1L2944.82 3359.94L2957.89 3352.69L3340.13 3140.81L3344.87 3138.18L3349.41 3141.14L3370.59 3154.95L3514.8 3077.3L3334.92 2964.84V2964.84L3333.35 2963.87L3321.46 2956.5L3323.98 2954.82L3323.14 2953.99L3333.87 2948.27L3334.09 2948.16L3536.27 2839.2L3351.04 2723.18L3186.14 2812.23L3186.14 2812.23L3157.91 2827.55L3153.26 2830.08L3153.22 2830.05L3153.17 2830.08L3148.69 2827.28L3118.09 2808.13L3105 2799.93L3105.11 2799.87L2657.43 2519.34L2649.1 2514.12L2644.03 2510.95L2657.68 2503.6L2679.8 2491.71L2689.12 2486.56L2693.75 2484L2693.93 2484.11L2842.13 2404.41L2786.71 2369.7L2377.53 2590.5ZM1960.05 3069.15L2044.78 3122.29L2063.11 3112.26L2067.73 3109.73L2072.21 3112.53L2456.36 3353.14L2469.37 3361.29L2455.91 3368.66L2446.12 3374.02L2527.01 3424.76L2614.11 3377.76L2047.12 3022.68L1960.05 3069.15ZM3006.81 3362.16L3060.7 3397.3L3397.42 3210.65L3343.53 3175.51L3006.81 3362.16ZM2010.18 3177.73L2349.66 3390.35L2406.13 3359.43L2066.65 3146.81L2010.18 3177.73ZM4907.66 2410.39L5193.73 2589.84L5194.76 2590.48L5206.96 2598.02L5206.86 2598.07L5208.72 2599.24L5193.03 2605.52L4121.48 3182.82L4121.67 3182.95L4108.13 3190.29L4076.62 3207.39L4071.99 3209.9L4067.54 3207.11L3772.7 3021.91L3752.7 3032.69L4076.87 3235.3L5250.15 2602.24L4927.68 2399.6L4907.66 2410.39ZM4798.73 2469.05L4805.83 2473.69L4818.35 2481.85L4805.28 2489.1L4423.04 2700.97L4418.3 2703.6L4413.76 2700.64L4393.39 2687.36L4245.76 2766.86L4253.82 2964.53L4254.18 2973.52L4245.19 2973.88L4223.17 2974.78C4196.17 2984.95 4167.46 2990.29 4138.33 2990.04C4100.38 2989.73 4069.95 2979.41 4037.66 2962.79C4013.98 2950.6 3992.67 2934.23 3967.69 2916.83L3821.98 2995.36L4074.6 3153.47L5110.2 2595.53L4858.03 2437.12L4798.73 2469.05ZM3416.72 2958.26L3564.12 3050.74L3730.75 2961.01L3583.16 2868.57L3416.72 2958.26ZM3855.38 2032.8L3861.2 2175.83L3861.57 2184.82L3852.58 2185.19L3830.29 2186.1C3803.09 2196.27 3774.19 2201.4 3745.02 2201.16C3707.82 2200.85 3671.22 2191.82 3638.15 2174.8C3607.81 2159.18 3581.22 2137.23 3560.16 2110.47L3529.32 2127.69L3524.64 2130.3L3520.12 2127.43L3389.27 2044.54L3313.82 2085.26L3430.89 2158.91H3430.89L3435.72 2161.9L3448.93 2170.08L3435.26 2177.47L3150.34 2331.51L3716.93 2687.2L3717.63 2686.83L3722.09 2689.72L3750.54 2708.19L3755.03 2711.11L3763.42 2716.36L3763.26 2716.45L3763.28 2716.47L3760.68 2717.86L3749.96 2723.74L3719.37 2740.51L3714.74 2743.04L3714.48 2742.88L3612.09 2798.42L3806.53 2920.21L3934.07 2851.53L3938.85 2848.95L3943.36 2851.98L3995.38 2886.91L4007.77 2895.23L3999.19 2899.85C4019.07 2913.94 4034.55 2925.2 4052.31 2934.34C4081.71 2949.47 4107.16 2957.78 4138.59 2958.04C4161.01 2958.23 4183.24 2954.57 4204.49 2947.46L4195.18 2718.8L4195.13 2718.71L4191.52 2710.99L4199.03 2706.96L4322.07 2640.85L4316.28 2637.07L4303.76 2628.91L4316.83 2621.66L4699.07 2409.78L4703.81 2407.15L4708.35 2410.11L4727.87 2422.84L4864.94 2349.2L4126.1 1886.42L3855.38 2032.8ZM2837.17 2573.86L3155.02 2773.04L3303.53 2693.42L2985.24 2494.05L2837.17 2573.86ZM2998.09 2413.83L3564.85 2768.83L3667.78 2713.58L3101.24 2358.06L2998.09 2413.83ZM4365.75 2631.13L4419.64 2666.27L4756.36 2479.62L4702.47 2444.48L4365.75 2631.13ZM811.36 1576.62L811.567 1576.75L824.087 1584.92L811.015 1592.17L428.774 1804.05L424.034 1806.67L419.495 1803.71L405.797 1794.78L148.729 1933.06L502.978 2155.25L523.643 2143.94L528.271 2141.4L532.742 2144.2L916.9 2384.81L929.911 2392.96L916.445 2400.33L904.313 2406.98L1193.48 2588.35L1216.15 2575.96L1077.14 2489.68L1063.91 2481.47L1077.63 2474.1L1078.52 2473.63L1078.43 2473.57L1091.84 2466.34L1614.09 2184.83L1617.97 2180.7L1619.72 2181.8L1622.36 2180.38L1624.88 2185.04L1767.57 2274.63L1866.58 2220.53C1860.67 2197.83 1858.13 2174.31 1859.1 2150.72C1860.65 2113.56 1870.88 2077.28 1888.99 2044.79C1903.46 2018.83 1922.64 1995.87 1945.47 1977.06L1956.47 1959.42L1961.23 1951.79L1968.87 1956.55L2153.09 2071.42L2237.99 2025.99L1511.76 1571.1L1395.77 1633.56L1395.93 1633.66L1382.25 1641L1350.57 1658.02L1345.97 1660.49L1341.54 1657.72L1163.9 1546.61L1086.29 1588.8L1086.39 1588.86L1072.9 1596.2L1041.41 1613.32L1036.78 1615.84L1032.32 1613.03L899.262 1529.34L811.36 1576.62ZM1160.75 2483.87L1265.25 2549.13L1718.66 2301.36L1617.64 2238.09L1160.75 2483.87ZM2740.93 2513.55L2789.82 2544.19L2937.88 2464.38L2889.49 2434.08L2740.93 2513.55ZM4374.24 2401.84L4403.12 2419.72L4408.01 2422.74L4444.04 2444.97L4444.53 2445.27L4453.76 2450.58L4467.33 2458.4L4453.74 2466.19L4372.7 2512.63L4368.08 2520.03L4364.1 2517.57L4361.48 2519.08L4357.66 2513.58L4287.44 2470.12L4277.56 2464.35L4263.71 2456.26L4277.83 2448.65L4365.23 2401.57L4369.81 2399.11L4374.24 2401.84ZM4800.92 2481.22L4781.12 2468.31L4779.11 2467L4800.92 2481.22ZM4298.97 2040.37L4740.43 2314.55L4759.87 2326.41L4773.3 2334.59L4759.44 2342.02L4571.79 2442.65L4572.46 2443.06L4558.46 2450.31L4530.63 2464.72L4526.72 2466.82L4520.77 2470.01L4517.74 2466.92L4517.3 2466.64L4091.09 2199.75L4090.44 2200.11L4085.94 2197.13L4068.2 2185.42L4058.72 2179.4L4058.86 2179.26L4048.16 2172.19L4061.07 2164.97L4287.55 2038.44L4295.53 2033.98L4298.97 2040.37ZM4360.83 2458.15L4365.31 2460.97L4370.92 2458.02L4366.55 2455.02L4360.83 2458.15ZM4227.83 2309.81L4256.71 2327.68L4262.34 2331.16L4297.64 2352.94L4298.11 2353.23L4307.35 2358.55L4320.93 2366.37L4307.33 2374.16L4226.29 2420.6L4221.67 2428L4217.69 2425.54L4215.07 2427.05L4211.25 2421.55L4140.97 2378.05L4131.16 2372.32L4117.31 2364.23L4131.43 2356.62L4218.83 2309.54L4223.41 2307.07L4227.83 2309.81ZM470.717 2209.4L810.199 2422.03L866.666 2391.11L527.184 2178.48L470.717 2209.4ZM4140.89 2172.85L4524.66 2413.13L4675.98 2332.2L4291.31 2091.62L4140.89 2172.85ZM2862.42 2328.84L2950.78 2384.19L3352.4 2167.53L3264.56 2111.84L2862.42 2328.84ZM4214.42 2366.12L4218.9 2368.93L4224.51 2365.99L4220.15 2362.99L4214.42 2366.12ZM4085.79 2211.48L4114.68 2229.35L4120.1 2232.71L4155.6 2254.6L4156.08 2254.9L4165.31 2260.22L4178.89 2268.03L4165.3 2275.82L4084.26 2322.27L4079.63 2329.67L4075.67 2327.21L4073.04 2328.73L4069.21 2323.21L3999.05 2279.79L3989.12 2273.98L3975.27 2265.9L3989.39 2258.29L4076.79 2211.21L4081.37 2208.74L4085.79 2211.48ZM4577.86 1712.18C4584.55 1734.24 4588.05 1757.06 4587.04 1781.55C4585.49 1818.71 4575.26 1854.99 4557.15 1887.48C4542.67 1913.44 4523.49 1936.4 4500.66 1955.22L4489.67 1972.85L4484.89 1980.5L4477.25 1975.71L4299.65 1864.28L4264.2 1884.6L4500 2032.31L4583.98 1987.05L4588.3 1980.15L4595.93 1984.93L4818.35 2124.25L4823.47 2127.45L4833.27 2131.9L4817.4 2140.54L4740.03 2182.68L4940.8 2308.45L5026.53 2262.39L4902.54 2184.73L4889.96 2176.85L4891.53 2175.93L4889.62 2174.68L4902.72 2167.46L5290 1954L5181.69 1886.52L5162.25 1897.17L5157.62 1899.7L5153.15 1896.9L4768.99 1656.29L4755.98 1648.15L4769.45 1640.77L4778.92 1635.59L4753.76 1619.91L4577.86 1712.18ZM4072.38 2267.78L4076.86 2270.6L4082.47 2267.66L4078.11 2264.65L4072.38 2267.78ZM734.716 2009L737.352 2010.65L738.207 2010.19L746.13 2005.92L750.399 2013.85L754.451 2021.37L884.313 2102.71L891.941 2107.49L887.163 2115.11L885.453 2117.84L889.801 2125.91L894.07 2133.83L886.148 2138.1L710.631 2232.71L702.708 2236.98L698.438 2229.06L689.731 2212.9L585.572 2147.66L572.967 2154.46L565.044 2158.73L560.773 2150.81L546.261 2123.88L541.991 2115.96L549.913 2111.69L573.265 2099.1L575.904 2094.89L580.683 2087.26L587.411 2091.47L715.775 2022.28L722.312 2011.85L727.089 2004.23L734.716 2009ZM4985.72 2178.98L5075.93 2235.85L5433.79 2043.59L5337.3 1983.47L4985.72 2178.98ZM634.773 2121.14L718.229 2173.42L818.969 2119.12L735.514 2066.84L634.773 2121.14ZM4547.36 2061.98L4692.95 2153.18L4738.85 2128.44L4590.73 2038.6L4547.36 2061.98ZM824.873 1639.92L1046.32 1778.2L1055.91 1783.89L1069.62 1792.03L1069 1792.36L1069.2 1792.48L1055.59 1799.84L1024.01 1816.91L1019.4 1819.41L1019.12 1819.24L522.798 2087.2L514.99 2091.71L510.281 2094.44L505.681 2091.54L305.333 1965.16L301.67 1963.05L271.077 1945.41L257.096 1937.34L271.302 1929.69L813.229 1637.55L821.744 1632.96L824.873 1639.92ZM3133.54 163.929C3293.4 295.749 3395.31 495.329 3395.31 718.711C3395.31 850.837 3359.66 974.633 3297.45 1081.01H3297.92L3291.05 1091.74C3285.4 1101.02 3279.55 1110.16 3273.5 1119.16L2671.88 2059.27L2311.92 1488.16L2594.85 1246.33L2594.61 1246.05L2595.4 1246.32L2650.23 1085.27C2659.11 1085.99 2668.08 1086.36 2677.14 1086.36C2857.43 1086.36 3003.58 940.207 3003.58 759.917C3003.58 644.955 2944.16 543.874 2854.35 485.714L2894.27 368.442L3133.54 163.929ZM355.851 1938.75L513.551 2037.13L612.654 1983.71L455.402 1885.21L355.851 1938.75ZM504.654 1858.73L661.854 1957.19L972.233 1789.89L815.287 1691.68L504.654 1858.73ZM4819.22 1650L5158.71 1862.62L5215.17 1831.7L4875.69 1619.08L4819.22 1650ZM371.486 1734.2L425.374 1769.34L762.094 1582.7L708.206 1547.55L371.486 1734.2ZM1268.72 1330.6L1911.43 1733.17L2021.48 1673.86L1378.64 1271.47L1268.72 1330.6ZM3322.53 1526.21L3529.23 1655.68L3652.58 1589.19L3445.39 1459.95L3322.53 1526.21ZM4439.7 1485.66L4650.37 1619.75L4706.14 1590.25L4492.55 1457.17L4439.7 1485.66ZM948.692 1502.75L1039.16 1559.29L1159.6 1494.13L1163.73 1489.05L1166.19 1490.58L1166.44 1490.45L1170.89 1493.31L1182.28 1500.61L1348.35 1604.01L1464.42 1541.45L1192.9 1371.38L948.692 1502.75ZM3521.71 1418.8L3614.57 1476.56L4102.25 1213.69L4009.72 1155.62L3521.71 1418.8ZM2676.6 0C2782.11 2.39761e-05 2882.31 22.7346 2972.56 63.5713L2739.69 262.615L2739.9 262.861L2739.22 262.628L2681.05 433.497C2679.75 433.482 2678.44 433.474 2677.14 433.474C2496.85 433.474 2350.7 579.628 2350.7 759.917C2350.7 866.62 2401.89 961.365 2481.06 1020.93L2441.22 1137.96L2213.74 1332.4L2069.04 1102.82C2068.68 1102.25 2068.31 1101.67 2067.95 1101.1L2055.29 1081.01H2055.76C1993.55 974.633 1957.89 850.837 1957.89 718.711C1957.89 321.778 2279.67 9.16317e-05 2676.6 0Z" fill="url(#paint0_linear_672_640)"/>
<defs>
<linearGradient id="paint0_linear_672_640" x1="3469.16" y1="-111.312" x2="1868.52" y2="2033.05" gradientUnits="userSpaceOnUse">
<stop stop-color="#A98648"/>
<stop offset="0.307692" stop-color="#D0B272"/>
<stop offset="0.480769" stop-color="#DDC080"/>
<stop offset="0.649038" stop-color="#D2B475"/>
<stop offset="1" stop-color="#A98648"/>
</linearGradient>
</defs>
</svg>
